<svg xmlns="http://www.w3.org/2000/svg" version="1.1" xmlns:xlink="http://www.w3.org/1999/xlink" xmlnsSvgjs="http://svgjs.com/svgjs" width="512" height="512" x="0" y="0" viewBox="0 0 64 64" style="enable-background:new 0 0 512 512" xml:space="preserve" class=""><g><g id="Close"><path d="m50 8h-36a6.00475 6.00475 0 0 0 -6 6v36a6.00475 6.00475 0 0 0 6 6h36a6.00475 6.00475 0 0 0 6-6v-36a6.00475 6.00475 0 0 0 -6-6zm-6.59 32.59a1.99406 1.99406 0 1 1 -2.82 2.82l-8.59-8.58-8.59 8.58a1.994 1.994 0 0 1 -2.82-2.82l8.58-8.59-8.58-8.59a1.994 1.994 0 0 1 2.82-2.82l8.59 8.58 8.59-8.58a1.994 1.994 0 0 1 2.82 2.82l-8.58 8.59z" fill="#000000" data-original="#ff5454" class=""></path><path d="m43.41 40.59a1.99406 1.99406 0 1 1 -2.82 2.82l-8.59-8.58-8.59 8.58a1.994 1.994 0 0 1 -2.82-2.82l8.58-8.59-8.58-8.59a1.994 1.994 0 0 1 2.82-2.82l8.59 8.58 8.59-8.58a1.994 1.994 0 0 1 2.82 2.82l-8.58 8.59z" fill="#ffffff" data-original="#ffffff" class=""></path></g></g></svg>